#!OML:ASF C:\Vicon Data\Big\jianyuan-12\jianyuan\Session 1\Capture.male.ASF
:FULLY-SPECIFIED
:DEGREES
139
root -10.395237 17.224172 -13.938213 1.214668 -24.601407 7.411709
lowerback -9.381707 1.543474 -3.197008 
upperback 2.851732 2.591092 -1.292395 
thorax 8.217321 1.143479 0.851784 
lowerneck 3.491407 -11.882444 -5.345402 
upperneck -6.095323 -15.462448 12.912292 
head -0.910284 -7.927800 4.790701 
rclavicle 0.000000 0.000000 
rhumerus -25.810792 -20.741687 -85.571285 
rradius 40.529124 
rwrist 26.630660 
rhand -21.170129 -4.865824 
rfingers 0.000000 
rthumb 5.210069 -34.781739 
lclavicle 0.000000 0.000000 
lhumerus -56.265800 46.115646 47.685057 
lradius 23.106803 
lwrist -65.692054 
lhand -7.649028 5.038698 
lfingers 0.000000 
lthumb 18.246549 34.202904 
rfemur 4.006965 3.862994 22.911236 
rtibia 28.791401 
rfoot -24.357706 0.044686 
rtoes 0.152596 
lfemur -27.017362 -7.922460 -18.879805 
ltibia 16.634985 
lfoot -5.972366 -3.427078 
ltoes -26.654649 
140
root -10.404651 17.225552 -13.911272 1.202774 -24.765370 7.458402
lowerback -9.423217 1.575069 -3.233655 
upperback 2.844694 2.641909 -1.316574 
thorax 8.231790 1.166925 0.856151 
lowerneck 3.470206 -11.883656 -5.347519 
upperneck -6.064641 -15.464401 12.946118 
head -0.894612 -7.927992 4.797681 
rclavicle 0.000000 0.000000 
rhumerus -25.865183 -20.799612 -85.551224 
rradius 40.443565 
rwrist 26.647657 
rhand -21.133812 -4.878793 
rfingers 0.000000 
rthumb 5.245155 -34.793856 
lclavicle 0.000000 0.000000 
lhumerus -56.161797 46.096663 47.785122 
lradius 23.135109 
lwrist -65.486740 
lhand -7.653043 5.049155 
lfingers 0.000000 
lthumb 18.242678 34.213741 
rfemur 3.984960 3.816280 22.817431 
rtibia 28.958648 
rfoot -24.185747 -0.010811 
rtoes -0.413118 
lfemur -26.989325 -7.886601 -18.914304 
ltibia 16.739493 
lfoot -5.706303 -3.494734 
ltoes -25.473791 
141
root -10.414747 17.226541 -13.883087 1.186229 -24.924560 7.479684
lowerback -9.454166 1.601494 -3.243267 
upperback 2.840425 2.681906 -1.340069 
thorax 8.244604 1.186473 0.844087 
lowerneck 3.471591 -11.877212 -5.332388 
upperneck -6.056323 -15.453268 12.980106 
head -0.891718 -7.923101 4.805241 
rclavicle 0.000000 0.000000 
rhumerus -25.926547 -20.836398 -85.541155 
rradius 40.366379 
rwrist 26.682270 
rhand -21.097829 -4.898629 
rfingers 0.000000 
rthumb 5.279900 -34.812843 
lclavicle 0.000000 0.000000 
lhumerus -56.047445 46.059914 47.895138 
lradius 23.169412 
lwrist -65.251827 
lhand -7.642950 5.060765 
lfingers 0.000000 
lthumb 18.252378 34.224445 
rfemur 3.987375 3.804158 22.757150 
rtibia 29.130683 
rfoot -24.017666 -0.028768 
rtoes -0.604435 
lfemur -26.947028 -7.838597 -18.931342 
ltibia 16.847672 
lfoot -5.425917 -3.573794 
ltoes -24.434185 
142
root -10.425930 17.226906 -13.852917 1.162274 -25.076142 7.460482
lowerback -9.468288 1.619684 -3.209809 
upperback 2.840567 2.704664 -1.362473 
thorax 8.254778 1.199809 0.805844 
lowerneck 3.508960 -11.858573 -5.289778 
upperneck -6.083639 -15.421290 13.014350 
head -0.909185 -7.910112 4.813724 
rclavicle 0.000000 0.000000 
rhumerus -25.999020 -20.839504 -85.547002 
rradius 40.302531 
rwrist 26.744949 
rhand -21.062379 -4.929409 
rfingers 0.000000 
rthumb 5.314104 -34.842775 
lclavicle 0.000000 0.000000 
lhumerus -55.916607 45.994860 48.021006 
lradius 23.213269 
lwrist -64.969756 
lhand -7.610379 5.074211 
lfingers 0.000000 
lthumb 18.283699 34.234934 
rfemur 4.028699 3.847148 22.750280 
rtibia 29.310349 
rfoot -23.855762 0.013085 
rtoes -0.199263 
lfemur -26.882010 -7.771245 -18.920561 
ltibia 16.961698 
lfoot -5.122711 -3.671024 
ltoes -23.619624 
143
root -10.437112 17.227272 -13.822747 1.138319 -25.227724 7.441280
lowerback -9.482409 1.637873 -3.176350 
upperback 2.840710 2.727422 -1.384876 
thorax 8.264953 1.213145 0.767601 
lowerneck 3.546329 -11.839934 -5.247168 
upperneck -6.110954 -15.389311 13.048595 
head -0.926651 -7.897124 4.822206 
rclavicle 0.000000 0.000000 
rhumerus -26.071493 -20.842611 -85.552850 
rradius 40.238683 
rwrist 26.807627 
rhand -21.026928 -4.960189 
rfingers 0.000000 
rthumb 5.348309 -34.872707 
lclavicle 0.000000 0.000000 
lhumerus -55.785768 45.929806 48.146874 
lradius 23.257125 
lwrist -64.687686 
lhand -7.577808 5.087656 
lfingers 0.000000 
lthumb 18.315020 34.245423 
rfemur 4.070023 3.890139 22.743409 
rtibia 29.490014 
rfoot -23.693859 0.054937 
rtoes 0.205908 
lfemur -26.816993 -7.703892 -18.909780 
ltibia 17.075725 
lfoot -4.819505 -3.768254 
ltoes -22.805062 
144
root -10.446291 17.228428 -13.790472 1.036327 -25.305048 7.527628
lowerback -9.442306 1.633598 -3.246739 
upperback 2.846135 2.732058 -1.413839 
thorax 8.245916 1.213392 0.775844 
lowerneck 3.555442 -11.839278 -5.250408 
upperneck -6.100064 -15.387880 13.082426 
head -0.921940 -7.896993 4.832450 
rclavicle 0.000000 0.000000 
rhumerus -26.138549 -20.987968 -85.484914 
rradius 40.118162 
rwrist 27.028433 
rhand -21.010520 -4.987321 
rfingers 0.000000 
rthumb 5.364159 -34.899438 
lclavicle 0.000000 0.000000 
lhumerus -55.656893 45.855835 48.319215 
lradius 23.303367 
lwrist -64.446773 
lhand -7.575474 5.092960 
lfingers 0.000000 
lthumb 18.317275 34.250523 
rfemur 4.125697 3.806835 22.608726 
rtibia 29.709868 
rfoot -23.498737 0.125112 
rtoes 0.566297 
lfemur -26.715226 -7.731307 -19.015525 
ltibia 17.187610 
lfoot -4.558614 -3.794767 
ltoes -22.540166 
145
root -10.454388 17.230011 -13.757060 0.892209 -25.342286 7.670952
lowerback -9.372930 1.617196 -3.373187 
upperback 2.854411 2.726911 -1.446343 
thorax 8.211111 1.206573 0.809182 
lowerneck 3.549301 -11.848330 -5.278398 
upperneck -6.068551 -15.402938 13.116034 
head -0.905257 -7.903804 4.843645 
rclavicle 0.000000 0.000000 
rhumerus -26.202680 -21.210113 -85.377150 
rradius 39.967048 
rwrist 27.334598 
rhand -21.004391 -5.012482 
rfingers 0.000000 
rthumb 5.370101 -34.924441 
lclavicle 0.000000 0.000000 
lhumerus -55.529077 45.777051 48.516641 
lradius 23.350898 
lwrist -64.228077 
lhand -7.589461 5.093870 
lfingers 0.000000 
lthumb 18.303840 34.252715 
rfemur 4.189118 3.655355 22.405049 
rtibia 29.951415 
rfoot -23.285683 0.210576 
rtoes 0.902511 
lfemur -26.593620 -7.809880 -19.184174 
ltibia 17.298338 
lfoot -4.320566 -3.783105 
ltoes -22.571988 
146
root -10.466168 17.232312 -13.712039 0.714954 -25.404319 7.840885
lowerback -9.297199 1.596529 -3.528817 
upperback 2.863606 2.719701 -1.481222 
thorax 8.172617 1.197493 0.855808 
lowerneck 3.554258 -11.857352 -5.308621 
upperneck -6.038727 -15.418422 13.146622 
head -0.890912 -7.911157 4.855127 
rclavicle 0.000000 0.000000 
rhumerus -26.341783 -21.370802 -85.257782 
rradius 39.852633 
rwrist 27.558622 
rhand -20.994836 -5.019075 
rfingers 0.000000 
rthumb 5.379345 -34.930798 
lclavicle 0.000000 0.000000 
lhumerus -55.418701 45.711971 48.700923 
lradius 23.403396 
lwrist -64.047336 
lhand -7.634238 5.080709 
lfingers 0.000000 
lthumb 18.260765 34.243596 
rfemur 4.265472 3.442977 22.148414 
rtibia 30.282503 
rfoot -23.006792 0.320543 
rtoes 1.152497 
lfemur -26.428039 -7.880310 -19.390684 
ltibia 17.445624 
lfoot -4.090608 -3.722430 
ltoes -22.886078 
147
root -10.495205 17.237356 -13.616507 0.470262 -25.589480 8.094463
lowerback -9.253889 1.554592 -3.788587 
upperback 2.866177 2.699259 -1.524077 
thorax 8.142546 1.176982 0.951185 
lowerneck 3.567975 -11.854149 -5.310531 
upperneck -6.007523 -15.417442 13.143806 
head -0.884150 -7.910388 4.854220 
rclavicle 0.000000 0.000000 
rhumerus -26.746981 -21.296361 -85.109481 
rradius 39.836275 
rwrist 27.494709 
rhand -20.946436 -4.962250 
rfingers 0.000000 
rthumb 5.426066 -34.872785 
lclavicle 0.000000 0.000000 
lhumerus -55.310475 45.682329 48.910641 
lradius 23.477236 
lwrist -63.919050 
lhand -7.908306 5.091648 
lfingers 0.000000 
lthumb 17.997054 34.278893 
rfemur 4.278934 2.950297 21.695112 
rtibia 31.068481 
rfoot -22.391635 0.493147 
rtoes 0.996245 
lfemur -26.133177 -7.860209 -19.721184 
ltibia 17.741035 
lfoot -3.975505 -3.334769 
ltoes -24.695617 
148
root -10.527224 17.242020 -13.523638 0.388917 -25.885952 8.352246
lowerback -9.360254 1.523691 -4.053507 
upperback 2.831681 2.703448 -1.597915 
thorax 8.159879 1.168368 1.025106 
lowerneck 3.540322 -11.820186 -5.281568 
upperneck -5.967611 -15.369931 13.183162 
head -0.871296 -7.885930 4.859015 
rclavicle 0.000000 0.000000 
rhumerus -26.939417 -21.559115 -84.976123 
rradius 39.530725 
rwrist 27.885098 
rhand -20.801751 -4.996893 
rfingers 0.000000 
rthumb 5.565760 -34.903792 
lclavicle 0.000000 0.000000 
lhumerus -54.953024 45.492661 49.394439 
lradius 23.547844 
lwrist -63.540976 
lhand -8.255679 5.193453 
lfingers 0.000000 
lthumb 17.662835 34.411177 
rfemur 3.963307 2.522115 21.245632 
rtibia 32.061830 
rfoot -21.641241 0.598091 
rtoes 0.924455 
lfemur -25.996965 -7.781404 -19.979474 
ltibia 18.040954 
lfoot -4.229965 -2.377524 
ltoes -27.261037 
149
root -10.558274 17.246175 -13.431092 0.136966 -26.194092 8.685031
lowerback -9.313703 1.488334 -4.353104 
upperback 2.825242 2.702673 -1.706411 
thorax 8.119615 1.158462 1.076227 
lowerneck 3.552644 -11.775548 -5.313104 
upperneck -5.938525 -15.307405 13.315520 
head -0.856938 -7.856230 4.902279 
rclavicle 0.000000 0.000000 
rhumerus -27.073878 -22.152128 -84.791742 
rradius 39.054612 
rwrist 28.486712 
rhand -20.667846 -5.092062 
rfingers 0.000000 
rthumb 5.695031 -34.995525 
lclavicle 0.000000 0.000000 
lhumerus -54.447276 45.098885 50.069377 
lradius 23.662177 
lwrist -62.865991 
lhand -8.333989 5.175305 
lfingers 0.000000 
lthumb 17.587422 34.399814 
rfemur 3.774292 2.219486 20.722400 
rtibia 33.157762 
rfoot -20.932068 0.788952 
rtoes 1.652833 
lfemur -25.716575 -7.710985 -20.332460 
ltibia 18.423045 
lfoot -4.800229 -1.247531 
ltoes -29.876368 
